# xmcd CD database file
#
# Track frame offsets:
#	150
#	28580
#	40606
#	55616
#	84896
#	99848
#	120398
#	131002
#	147892
#	173082
#	189975
#	203345
#
# Disc length: 3012 seconds
#
# Revision: 0
# Processed by: cddbd v1.5.2PL0 Copyright (c) Steve Scherf et al.
# Submitted via: CDex 1.51
#
DISCID=860bc20c
DTITLE=Various Artist - Easy Jazz [CD2)
DYEAR=2005
DGENRE=Jazz
TTITLE0=Ella Fitzgerald and Louis Armstrong - isn't this a lovely day
TTITLE1=Art Pepper - these foolish things
TTITLE2=Michael Buble - love at first sight
TTITLE3=Chet Baker - soft winds
TTITLE4=Joanna Eden - don't know why
TTITLE5=ELQ - easy dreaming
TTITLE6=Carmen McCrae - it could happen to you
TTITLE7=Dizzy Gillespie - they can't take that away from me
TTITLE8=John Coltrane and Johnny Hartman - you are too beautiful
TTITLE9=Grupo Cabana - wave
TTITLE10=Billie Holiday - I loves you Porgy
TTITLE11=Count Basie Orchestra - li'l darlin'
EXTD=YEAR: 2005
EXTT0=
EXTT1=
EXTT2=
EXTT3=
EXTT4=
EXTT5=
EXTT6=
EXTT7=
EXTT8=
EXTT9=
EXTT10=
EXTT11=
PLAYORDER=
